<svg xmlns="http://www.w3.org/2000/svg" xmlns:xlink="http://www.w3.org/1999/xlink" viewBox="17432.5 802.5 145 145">
  <defs>
    <style>
      .cls-1 {
        fill: #2ca7e0;
      }

      .cls-2 {
        fill: #fff;
        fill-rule: evenodd;
      }

      .cls-3 {
        filter: url(#Rectangle_36);
      }
    </style>
    <filter id="Rectangle_36" x="17432.5" y="802.5" width="145" height="145" filterUnits="userSpaceOnUse">
      <feOffset dy="6" input="SourceAlpha"/>
      <feGaussianBlur stdDeviation="12.5" result="blur"/>
      <feFlood flood-color="#003591" flood-opacity="0.149"/>
      <feComposite operator="in" in2="blur"/>
      <feComposite in="SourceGraphic"/>
    </filter>
  </defs>
  <g id="Group_364" data-name="Group 364" transform="translate(15920)">
    <g id="Group_353" data-name="Group 353" transform="translate(1785 2747) rotate(180)">
      <g class="cls-3" transform="matrix(-1, 0, 0, -1, 17705, 2747)">
        <rect id="Rectangle_36-2" data-name="Rectangle 36" class="cls-1" width="70" height="70" rx="35" transform="translate(17540 904) rotate(180)"/>
      </g>
    </g>
    <g id="iconfinder_twitter_294655" transform="translate(1543.982 788.109)">
      <g id="Group_357" data-name="Group 357" transform="translate(26.018 68.891)">
        <path id="Path_1291" data-name="Path 1291" class="cls-2" d="M56.018,71.777a12.3,12.3,0,0,1-3.535.969,6.173,6.173,0,0,0,2.706-3.405,12.323,12.323,0,0,1-3.908,1.494,6.161,6.161,0,0,0-10.488,5.614,17.474,17.474,0,0,1-12.686-6.431,6.161,6.161,0,0,0,1.9,8.217,6.13,6.13,0,0,1-2.788-.77c0,.026,0,.051,0,.077a6.159,6.159,0,0,0,4.937,6.035,6.167,6.167,0,0,1-2.78.106,6.161,6.161,0,0,0,5.75,4.274,12.348,12.348,0,0,1-7.644,2.635,12.486,12.486,0,0,1-1.468-.086,17.421,17.421,0,0,0,9.435,2.765c11.321,0,17.512-9.379,17.512-17.512q0-.4-.018-.8A12.5,12.5,0,0,0,56.018,71.777Z" transform="translate(-26.018 -68.891)"/>
      </g>
    </g>
  </g>
</svg>
